HIERARCHY
ROOT Hips
{
	OFFSET 0.000000 0.000000 0.000000
	CHANNELS 6 Xposition Yposition Zposition Zrotation Yrotation Xrotation 
	JOINT LHipJoint
	{
		OFFSET 0.000000 0.000000 0.000000
		CHANNELS 3 Zrotation Yrotation Xrotation
		JOINT LeftUpLeg
		{
			OFFSET 1.363060 -1.794630 0.839290
			CHANNELS 3 Zrotation Yrotation Xrotation
			JOINT LeftLeg
			{
				OFFSET 2.448110 -6.726130 0.000000
				CHANNELS 3 Zrotation Yrotation Xrotation
				JOINT LeftFoot
				{
					OFFSET 2.562200 -7.039590 0.000000
					CHANNELS 3 Zrotation Yrotation Xrotation
					JOINT LeftToeBase
					{
						OFFSET 0.157640 -0.433110 2.322550
						CHANNELS 3 Zrotation Yrotation Xrotation
						End Site
						{
							OFFSET 0.000000 0.000000 0.000000
						}
					}
				}
			}
		}
	}
	JOINT RHipJoint
	{
		OFFSET 0.000000 0.000000 0.000000
		CHANNELS 3 Zrotation Yrotation Xrotation
		JOINT RightUpLeg
		{
			OFFSET -1.305520 -1.794630 0.839290
			CHANNELS 3 Zrotation Yrotation Xrotation
			JOINT RightLeg
			{
				OFFSET -2.542530 -6.985550 0.000000
				CHANNELS 3 Zrotation Yrotation Xrotation
				JOINT RightFoot
				{
					OFFSET -2.568260 -7.056230 0.000000
					CHANNELS 3 Zrotation Yrotation Xrotation
					JOINT RightToeBase
					{
						OFFSET -0.164730 -0.452590 2.363150
						CHANNELS 3 Zrotation Yrotation Xrotation
						End Site
						{
							OFFSET 0.000000 0.000000 0.000000
						}
					}
				}
			}
		}
	}
}
MOTION
Frames: 31
Frame Time: 0.008333
-0.459850 16.812402 0.528512 24.059752 76.831789 34.980066 -10.953317 3.659215 -1.387258 -2.369515 11.104052 -8.144962 0.204822 2.231201 43.196651 1.406345 0.485196 25.715253 -0.474200 -0.000000 -70.358300 8.366128 -0.662564 2.968658 17.054810 4.679650 -31.176315 2.661837 0.857327 10.548386 -2.919650 -9.365974 -13.386189 0.304400 0.000000 -0.928500
-0.233824 16.818602 0.608546 20.734743 76.009728 31.977604 -11.158950 3.481373 -1.325158 -2.038348 10.859096 -10.109725 0.341150 2.316164 46.255001 1.586868 1.932461 26.001058 0.206600 -0.000000 -64.367100 8.117495 -0.812161 3.104071 17.760130 5.611859 -31.040676 2.769113 0.725320 11.815729 -2.798069 -8.738902 -13.571025 -179.657600 -0.000000 -0.746000
-0.013323 16.826623 0.690453 17.769067 75.103062 29.347872 -11.312718 3.294546 -1.262258 -1.829069 10.500169 -12.108123 0.460938 2.413401 49.112994 1.754402 3.739983 25.647845 1.084000 -0.000000 -58.789300 7.904554 -0.933617 3.216974 18.448253 6.436028 -30.835407 2.874105 0.612951 12.926359 -2.674219 -8.079429 -13.825341 -179.608800 -0.000000 -2.607000
0.201578 16.836510 0.775258 15.281154 74.146316 27.197982 -11.413790 3.099427 -1.192342 -1.746505 9.992529 -14.114098 0.572522 2.516580 51.716864 1.910983 5.782537 24.723356 2.050500 0.000000 -54.032700 7.733427 -1.025987 3.304721 19.075925 7.146899 -30.517224 2.968513 0.526456 13.823790 -2.559585 -7.446371 -14.131102 -179.554300 0.000000 -4.628700
0.411302 16.848430 0.863598 13.293024 73.175517 25.546508 -11.467029 2.896519 -1.108986 -1.777029 9.310602 -16.113457 0.678822 2.619014 54.029650 2.055977 7.908757 23.275834 2.982100 0.000000 -49.978900 7.602516 -1.090188 3.368729 19.614501 7.755993 -30.053792 3.047919 0.472899 14.452747 -2.462038 -6.886541 -14.457548 -179.499700 -0.000000 -6.748300
0.616318 16.862447 0.955919 11.792071 72.219538 24.375779 -11.477244 2.687328 -1.002947 -1.904117 8.427049 -18.086812 0.778417 2.712695 56.009141 2.189956 9.987570 21.394469 3.775899 0.000000 -46.712200 7.510235 -1.127655 3.409649 20.041774 8.269915 -29.427241 3.110276 0.455982 14.780909 -2.382396 -6.418446 -14.767392 -179.450299 0.000000 -8.826701
0.817450 16.878538 1.052335 10.725145 71.302573 23.633482 -11.449240 2.473772 -0.865843 -2.099687 7.323879 -20.021418 0.866824 2.791413 57.625697 2.310693 11.897772 19.156458 4.350000 -0.000000 -44.027900 7.453382 -1.140385 3.429504 20.348115 8.699305 -28.637040 3.155954 0.476947 14.795015 -2.317372 -6.040973 -15.026239 -179.410200 0.000001 -10.748200
1.015462 16.896574 1.152756 10.033233 70.439951 23.259971 -11.386769 2.258167 -0.689544 -2.332691 5.991704 -21.903730 0.938068 2.849890 58.854700 2.415853 13.549551 16.658234 4.661600 0.000000 -41.794900 7.429715 -1.131205 3.429733 20.531474 9.049690 -27.697383 3.186363 0.532951 14.509784 -2.259911 -5.733359 -15.206833 -179.382700 -0.000001 -12.398300
1.211273 16.916279 1.256854 9.649861 69.639707 23.191422 -11.292866 2.042041 -0.467484 -2.568049 4.431428 -23.723954 0.986466 2.884012 59.678528 2.503890 14.889919 14.016592 4.711600 -0.000000 -39.922700 7.436462 -1.103460 3.412095 20.598070 9.327054 -26.636331 3.203842 0.618630 13.960130 -2.202105 -5.465390 -15.294370 -179.369900 0.000000 -13.727800
1.405664 16.937278 1.364120 9.506485 68.899357 23.361682 -11.170417 1.826458 -0.196559 -2.769164 2.662294 -25.477777 1.007896 2.891725 60.091198 2.574215 15.902341 11.350635 4.537100 -0.000000 -38.379999 7.470170 -1.061112 3.378601 20.561020 9.537937 -25.488671 3.211209 0.726526 13.198772 -2.136645 -5.203498 -15.286927 -179.372500 -0.000000 -14.726800
1.599405 16.959036 1.473802 9.531519 68.208652 23.700847 -11.022749 1.612430 0.122006 -2.900062 0.724899 -27.165605 1.000681 2.873120 60.098751 2.627381 16.601221 8.764930 4.198200 0.000000 -36.992700 7.525802 -1.008874 3.332122 20.441159 9.691179 -24.290065 3.211848 0.848423 12.288089 -2.058392 -4.917718 -15.195085 -179.389400 -0.000000 -15.424000
1.793104 16.980980 1.585097 9.651623 67.548805 24.136573 -10.853403 1.400588 0.482295 -2.929717 -1.321718 -28.791130 0.966351 2.829362 59.713424 2.667159 17.035963 6.365132 3.770200 -0.000000 -35.740900 7.597157 -0.951220 3.275705 20.263374 9.798190 -23.072278 3.209338 0.976613 11.291153 -1.964955 -4.586069 -15.038327 -179.418000 0.000000 -15.877300
1.987269 17.002490 1.697108 9.795650 66.896121 24.596187 -10.666526 1.192197 0.873284 -2.836441 -3.399905 -30.358947 0.909055 2.762756 58.956140 2.698926 17.274008 4.227791 3.322700 0.000000 -34.573200 7.677200 -0.892469 3.212644 20.055340 9.872079 -21.857245 3.207200 1.104643 10.265829 -1.856805 -4.196584 -14.842688 -179.454000 0.000001 -16.160600
2.182162 17.022865 1.809089 9.900511 66.224000 25.011564 -10.466761 0.989432 1.280202 -2.613608 -5.420431 -31.870303 0.834628 2.675741 57.852921 2.729381 17.392354 2.397994 2.908800 0.000000 -33.450801 7.759083 -0.836611 3.146618 19.843634 9.925905 -20.655576 3.208467 1.227882 9.258766 -1.736674 -3.746950 -14.636462 -179.493200 0.000000 -16.356500
2.377948 17.041483 1.920484 9.919389 65.506894 25.329863 -10.258479 0.794874 1.685485 -2.273354 -7.292760 -33.321720 0.749221 2.570353 56.431885 2.765582 17.466043 0.887711 2.561400 -0.000000 -32.343200 7.837764 -0.786618 3.080172 19.649314 9.969279 -19.468370 3.215128 1.343519 8.302614 -1.608558 -3.242427 -14.445949 -179.531700 0.000000 -16.549700
2.574559 17.057717 2.030977 9.827189 64.722719 25.517326 -10.046043 0.611430 2.071844 -1.846791 -8.933321 -34.703479 0.658151 2.447950 54.721947 2.813971 17.558900 -0.319459 2.294600 0.000000 -31.237900 7.910370 -0.744974 3.015604 19.486368 10.007135 -18.288897 3.227892 1.450246 7.416309 -1.477020 -2.693861 -14.292986 -179.566800 -0.000000 -16.818400
2.771845 17.071015 2.140645 9.622879 63.855929 25.565266 -9.833117 0.441630 2.424142 -1.381771 -10.275512 -36.001867 0.564927 2.309252 52.749206 2.879630 17.717445 -1.260435 2.108800 0.000000 -30.126500 7.976980 -0.713379 2.953925 19.358847 10.037552 -17.106865 3.246093 1.547750 6.606304 -1.345911 -2.113421 -14.190854 -179.597800 -0.000000 -17.225200
2.969577 17.080843 2.249769 9.326646 62.898876 25.486874 -9.623083 0.287572 2.731944 -0.934972 -11.274364 -37.202223 0.471075 2.154627 50.535466 2.965485 17.967294 -1.975868 1.998400 -0.000000 -29.069500 8.039711 -0.693212 2.895841 19.262630 10.053188 -15.912090 3.268027 1.636338 5.869701 -1.218072 -1.512908 -14.143966 -179.625201 0.000000 -17.803700
3.167571 17.086845 2.358851 8.971792 61.853186 25.310960 -9.418270 0.150704 2.988412 -0.564262 -11.907826 -38.291906 0.375061 1.984761 48.097675 3.071014 18.306470 -2.517898 1.950400 -0.000000 -28.046300 8.102576 -0.684844 2.839845 19.186451 10.040783 -14.696235 3.291360 1.716499 5.196250 -1.094599 -0.900719 -14.145978 -179.650900 -0.000001 -18.559000
3.365626 17.088748 2.468448 8.594824 60.729634 25.071738 -9.221272 0.032511 3.192423 -0.319914 -12.174385 -39.265088 0.273433 1.800586 45.448128 3.191901 18.708793 -2.921979 1.953900 0.000000 -27.139200 8.169219 -0.688757 2.785080 19.116754 9.986945 -13.455255 3.313718 1.788694 4.574242 -0.975673 -0.283758 -14.183359 -179.677300 -0.000000 -19.456500
3.563629 17.086413 2.579078 8.228157 59.546929 24.800503 -9.034266 -0.065393 3.345445 -0.240456 -12.088693 -40.120361 0.159936 1.603550 42.596668 3.318950 19.120618 -3.222316 1.994500 -0.000000 -26.370500 8.242882 -0.704772 2.729111 19.040133 9.877191 -12.186750 3.333148 1.853181 3.991458 -0.860273 0.334932 -14.237432 -179.706700 0.000001 -20.445600
3.761651 17.079843 2.691112 7.891647 58.330469 24.519254 -8.860074 -0.141423 3.451977 -0.348155 -11.675798 -40.865965 0.026663 1.395265 39.553842 3.438061 19.465750 -3.438596 2.058300 0.000000 -25.795000 8.324211 -0.732739 2.671062 18.948107 9.704617 -10.894326 3.348450 1.910092 3.439665 -0.747778 0.950044 -14.288466 -179.740600 -0.000001 -21.451700
3.959593 17.069113 2.804621 7.598024 57.108829 24.234423 -8.701428 -0.193880 3.514618 -0.657982 -10.965568 -41.501800 -0.136100 1.177436 36.332615 3.530534 19.654464 -3.576110 2.132400 -0.000000 -25.496300 8.413341 -0.771780 2.605131 18.836894 9.453581 -9.573317 3.359563 1.958803 2.916557 -0.636680 1.564552 -14.324334 -179.779700 0.000000 -22.440500
4.157885 17.054499 2.919568 7.341870 55.911649 23.945865 -8.562152 -0.222764 3.538486 -1.166886 -9.989538 -42.046091 -0.338311 0.951335 32.957058 3.574611 19.586624 -3.639227 2.199900 0.000000 -25.500200 8.505431 -0.821532 2.532526 18.711531 9.133568 -8.232463 3.366897 1.999035 2.426195 -0.528444 2.166038 -14.334360 -179.823100 0.000000 -23.337100
4.356865 17.036284 3.035592 7.111375 54.764868 23.640688 -8.445858 -0.229757 3.525976 -1.867674 -8.779340 -42.510378 -0.589067 0.718059 29.463017 3.547765 19.169854 -3.621312 2.245500 -0.000001 -25.876900 8.594534 -0.881063 2.451489 18.582340 8.750596 -6.874497 3.371909 2.030008 1.979878 -0.424576 2.746193 -14.319255 -179.869100 -0.000000 -24.107200
4.556726 17.014834 3.152177 6.898606 53.688287 23.298259 -8.354178 -0.218524 3.474494 -2.755816 -7.365883 -42.892194 -0.896221 0.478912 25.903040 3.429142 18.325103 -3.526661 2.248100 -0.000000 -26.597700 8.676321 -0.948511 2.354088 18.458525 8.295248 -5.490066 3.376561 2.050025 1.594989 -0.325216 3.308731 -14.290064 -179.916700 0.000001 -24.767200
4.758231 16.990572 3.268773 6.682830 52.694265 22.903364 -8.288909 -0.195821 3.387518 -3.806613 -5.788498 -43.214819 -1.260211 0.235342 22.348157 3.205382 17.004895 -3.351712 2.192800 -0.000001 -27.741600 8.741701 -1.023070 2.243302 18.354708 7.790314 -4.092036 3.382736 2.057974 1.296518 -0.233904 3.837639 -14.259619 -179.963900 -0.000000 -25.274900
4.961935 16.963919 3.384879 6.451933 51.786615 22.443848 -8.248598 -0.169531 3.268316 -4.989931 -4.099257 -43.491568 -1.674287 -0.010081 18.882649 2.874003 15.202165 -3.105106 2.066700 0.000000 -29.351500 8.784700 -1.103167 2.117803 18.279118 7.244890 -2.689290 3.392248 2.051933 1.113727 -0.152149 4.330258 -14.246708 179.990300 -0.000000 -25.621000
5.168046 16.935303 3.500096 6.204641 50.961682 21.912354 -8.227699 -0.147594 3.120702 -6.269307 -2.363450 -43.724961 -2.124442 -0.253529 15.599468 2.446262 12.949622 -2.827423 1.857200 -0.000000 -31.309800 8.804099 -1.186406 1.971281 18.228745 6.650037 -1.288431 3.406311 2.029028 1.077782 -0.078999 4.799436 -14.271796 179.944600 0.000000 -25.833900
5.376893 16.905152 3.614408 5.939605 50.211296 21.315329 -8.219993 -0.136674 2.957387 -7.584350 -0.665706 -43.922201 -2.586991 -0.490850 12.581212 1.949366 10.335063 -2.558518 1.570000 0.000000 -33.574100 8.799687 -1.271194 1.802686 18.196542 6.008796 0.086497 3.425407 1.986246 1.222005 -0.013637 5.255006 -14.349959 179.897099 -0.000000 -25.921300
5.589059 16.873926 3.728064 5.645213 49.521792 20.672878 -8.221147 -0.141668 2.802922 -8.843257 0.890720 -44.098903 -3.030987 -0.719117 9.883626 1.424551 7.505085 -2.338679 1.229299 0.000000 -36.121401 8.769275 -1.357050 1.621514 18.182235 5.359542 1.390152 3.449170 1.921214 1.577627 0.042266 5.685181 -14.484991 179.848300 0.000000 -25.831500
